<svg width="23" height="21" viewBox="0 0 23 21" xmlns="http://www.w3.org/2000/svg" class="c-icon c-icon--anytime c-icon--18"><path d="M.264 10.556A.603.603 0 0 1 0 10.092V9.07l11.398 6.516c.1.057.255.062.361 0L23 9.07v1.022c0 .17-.113.376-.26.464l-10.97 6.576a.371.371 0 0 1-.343.01L.264 10.557z"></path><path d="M.264 13.856A.603.603 0 0 1 0 13.392V12.37l11.398 6.516c.1.057.255.062.361 0L23 12.37v1.022c0 .17-.113.376-.26.464l-10.97 6.576a.371.371 0 0 1-.343.01L.264 13.857z"></path><path d="M.367 7.514c-.48-.284-.467-.724.02-.978L10.69 1.149c.49-.256 1.285-.254 1.765 0l10.167 5.387c.485.256.494.694.02.978l-10.206 6.122c-.473.284-1.245.284-1.726 0L.367 7.514z"></path></svg>