<svg width="21" height="19" viewBox="0 0 21 19" fill="#D9285C" xmlns="http://www.w3.org/2000/svg" class="c-icon c-icon--upcoming c-icon--18"><path d="M4 9c0-.552.443-1 .999-1h1.002C6.553 8 7 8.444 7 9c0 .552-.443 1-.999 1H4.999A.997.997 0 0 1 4 9zm0 3c0-.552.443-1 .999-1h1.002c.552 0 .999.444.999 1 0 .552-.443 1-.999 1H4.999A.997.997 0 0 1 4 12zm0 3c0-.552.443-1 .999-1h1.002c.552 0 .999.444.999 1 0 .552-.443 1-.999 1H4.999A.997.997 0 0 1 4 15zm5-6c0-.552.443-1 .999-1h1.002c.552 0 .999.444.999 1 0 .552-.443 1-.999 1H9.999A.997.997 0 0 1 9 9zm0 3c0-.552.443-1 .999-1h1.002c.552 0 .999.444.999 1 0 .552-.443 1-.999 1H9.999A.997.997 0 0 1 9 12zm0 3c0-.552.443-1 .999-1h1.002c.552 0 .999.444.999 1 0 .552-.443 1-.999 1H9.999A.997.997 0 0 1 9 15zm5-6c0-.552.443-1 .999-1h1.002c.552 0 .999.444.999 1 0 .552-.443 1-.999 1h-1.002A.997.997 0 0 1 14 9zm0 3c0-.552.443-1 .999-1h1.002c.552 0 .999.444.999 1 0 .552-.443 1-.999 1h-1.002A.997.997 0 0 1 14 12zm0 3c0-.552.443-1 .999-1h1.002c.552 0 .999.444.999 1 0 .552-.443 1-.999 1h-1.002A.997.997 0 0 1 14 15z"></path><path d="M0 3.8C0 1.7 1.79 0 4 0h13c2.21 0 4 1.703 4 3.8v12.356C21 17.726 19.654 19 17.991 19H3.01C1.347 19 0 17.724 0 16.156V3.799zM1 6v9.991C1 17.098 1.894 18 2.997 18h15.006A2 2 0 0 0 20 15.991V6H1z"></path><path d="M1 3c0-1.105 1.118-2 2.503-2h13.994C18.879 1 20 1.888 20 3v2H1V3z" fill="#FFF" opacity=".2"></path><rect fill="#FFF" opacity=".7" x="4" y="2" width="2" height="2" rx="1"></rect><rect fill="#FFF" opacity=".7" x="15" y="2" width="2" height="2" rx="1"></rect></svg>